<svg width="20" height="25" viewBox="0 0 20 25" xmlns="http://www.w3.org/2000/svg">
    <path d="M19.921 8.35c-.014-.04-.025-.079-.041-.117a1.246 1.246 0 0 0-.245-.367l-7.5-7.5a1.246 1.246 0 0 0-.366-.245C11.73.104 11.69.094 11.65.08a1.24 1.24 0 0 0-.323-.064C11.3.014 11.276 0 11.25 0H2.5A2.503 2.503 0 0 0 0 2.5v20C0 23.879 1.121 25 2.5 25h15c1.379 0 2.5-1.121 2.5-2.5V8.75c0-.026-.014-.05-.016-.077a1.238 1.238 0 0 0-.063-.323zm-4.188-.85H12.5V4.268L15.733 7.5zM2.5 22.5v-20H10v6.25c0 .691.559 1.25 1.25 1.25h6.25l.002 12.5H2.5z" fill="#BEBEBE" fill-rule="nonzero"/>
</svg>
