
<svg width="20" height="20" viewBox="0 0 20 20" xmlns="http://www.w3.org/2000/svg">
    <path d="M7.692 16.923A2.314 2.314 0 0 1 10 14.615a2.314 2.314 0 0 1 2.308 2.308A2.314 2.314 0 0 1 10 19.231a2.314 2.314 0 0 1-2.308-2.308zm0-6.923A2.314 2.314 0 0 1 10 7.692 2.314 2.314 0 0 1 12.308 10 2.314 2.314 0 0 1 10 12.308 2.314 2.314 0 0 1 7.692 10zm0-6.923A2.314 2.314 0 0 1 10 .769a2.314 2.314 0 0 1 2.308 2.308A2.314 2.314 0 0 1 10 5.385a2.314 2.314 0 0 1-2.308-2.308z" fill="#FFF" fill-rule="evenodd"/>
</svg>
