<?xml version="1.0" encoding="UTF-8"?>
<svg id="Layer_2" data-name="Layer 2" xmlns="http://www.w3.org/2000/svg" xmlns:xlink="http://www.w3.org/1999/xlink" viewBox="0 0 80 77.09">
  <defs>
    <style>
      .cls-1 {
        fill: url(#linear-gradient);
      }
    </style>
    <linearGradient id="linear-gradient" x1="-853.69" y1="-107.52" x2="-844.94" y2="-98.88" gradientTransform="translate(47454.09 -5337.58) scale(56.07 -54.04)" gradientUnits="userSpaceOnUse">
      <stop offset="0" stop-color="#8205d2"/>
      <stop offset=".39" stop-color="#7f07cf"/>
      <stop offset="1" stop-color="#60a3f1"/>
    </linearGradient>
  </defs>
  <g id="Layer_1-2" data-name="Layer 1">
    <path id="Path_138" data-name="Path 138" class="cls-1" d="m79.37,16.69c-1.71-6.64-6.44-12.1-12.78-14.72-10.58-4.37-22.77-1.31-30.03,7.54-3.12,3.84-4.86,8.62-4.94,13.57h0l-.34,9.61v21.32h-.02c-.16,2.63-2.58,5.17-6.02,6.03-4.03,1.01-7.92-.66-8.69-3.73s1.87-6.38,5.9-7.39c2.14-.59,4.43-.32,6.38.76v-17.49c-3.36-.54-6.8-.38-10.1.47-5.42,1.33-10.25,4.39-13.77,8.72-7.6,9.17-6.32,22.77,2.85,30.37,1.69,1.4,3.58,2.53,5.62,3.36,3.11,1.32,6.46,1.99,9.83,1.98,2.16,0,4.32-.27,6.42-.8,5.42-1.33,10.25-4.39,13.77-8.72,3.23-3.98,4.98-8.96,4.95-14.09h0l.34-9v-21.4h.02c.16-2.63,2.58-5.17,6.02-6.03,4.03-1.01,7.92.66,8.69,3.73s-1.87,6.38-5.9,7.39c-2.14.6-4.43.32-6.38-.76v17.57c1.22.17,2.45.25,3.68.24,2.16,0,4.32-.27,6.42-.8,5.42-1.33,10.25-4.39,13.77-8.72,4.35-5.3,5.96-12.35,4.33-19.02Z"/>
  </g>
</svg>