<?xml version="1.0" encoding="utf-8"?>
<!-- Generator: Adobe Illustrator 25.4.1, SVG Export Plug-In . SVG Version: 6.00 Build 0)  -->
<svg version="1.1" id="Layer_1" xmlns="http://www.w3.org/2000/svg" xmlns:xlink="http://www.w3.org/1999/xlink" x="0px" y="0px"
	 viewBox="0 0 485 91" style="enable-background:new 0 0 485 91;" xml:space="preserve">
<style type="text/css">
	.st0{fill:#FFFFFF;}
	.st1{fill:url(#Path_125_00000055694678392312875000000014859598195809180349_);}
</style>
<g id="Group_27" transform="translate(-202.892 -272.933)">
	<g id="Group_26" transform="translate(302.141 294.53)">
		<path id="Path_127" class="st0" d="M33.4,17.8L31,21.7c-3.4-2-7.2-3.1-11.1-3.2c-4.3,0-6.9,1.5-6.9,3.4c0,1.8,2.1,2.7,8.1,3.6
			c9,1.5,12.7,3.2,12.7,8.1c0,4.7-4.8,8.3-12.9,8.3c-5.2,0-10.2-1.3-14.7-3.9l2.4-4.1c3.7,2.3,8,3.6,12.4,3.6c4.6,0,7.1-1.6,7.1-3.6
			c0-1.9-1.9-2.8-8.5-3.8c-8.9-1.4-12.3-3.4-12.3-7.8s4.3-8.2,12.9-8.2C24.9,14.3,29.4,15.5,33.4,17.8z"/>
		<path id="Path_128" class="st0" d="M71.4,28c0,8.2-6.8,14.1-16.1,14.1c-9.5,0-15.9-6-15.9-13.9c0-8.2,6.7-14.1,16-14.1
			C64.8,14.1,71.4,20.1,71.4,28z M45.4,28.2c0,4.8,3.5,9.2,9.9,9.2c6.1,0,9.9-4.2,9.9-9.4c0-4.8-3.5-9.2-9.9-9.2
			C49.2,18.8,45.4,22.9,45.4,28.2L45.4,28.2z"/>
		<path id="Path_129" class="st0" d="M85.3,15v15.5c0,3.8,2.2,6.4,6.7,6.4c5.6,0,9.5-4.1,9.5-7.7V15h6.2v26.1h-5.3l-0.7-5.8
			c-2.9,3.8-6.5,6.5-12,6.5c-6.8,0-10.9-4.1-10.9-10.5V15L85.3,15z"/>
		<path id="Path_130" class="st0" d="M123.4,15l0.7,5.8c2.9-3.8,6.5-6.4,12-6.4c6.8,0,10.9,4.1,10.9,10.5v16.2h-6.2V25.6
			c0-3.7-2.3-6.4-6.7-6.4c-5.6,0-9.5,4.1-9.5,7.7v14.2h-6.2V15H123.4z"/>
		<path id="Path_131" class="st0" d="M179.6,19.7V3.5h6.2v37.6h-5.3l-0.5-5.5c-2.4,3.3-5.9,6.2-12,6.2c-7.8,0-13.5-5.6-13.5-13.8
			c0-8.2,5.9-13.8,13.6-13.8C172.7,14.2,176.9,16.2,179.6,19.7z M160.7,28.1c-0.2,4.9,3.6,9,8.5,9.2c0.3,0,0.5,0,0.8,0
			c5.3,0,9.7-3.9,9.7-9.2s-4.4-9.2-9.7-9.2C164.2,18.9,160.7,23,160.7,28.1L160.7,28.1z"/>
		<path id="Path_132" class="st0" d="M237.2,17.9l-2.3,4.2c-2.8-2-6.2-3.1-9.7-3.2c-5.8,0-10.4,3.5-10.4,9.2c0,5.7,4.2,9.1,10.4,9.1
			c4.1,0,7-1.4,9.9-3.1l2,4.1c-3.8,2.3-8.2,3.6-12.6,3.6c-9.7,0-15.8-5.5-15.8-13.7c0-8.2,7-14,15.9-14
			C229,14.2,233.5,15.5,237.2,17.9z"/>
		<path id="Path_133" class="st0" d="M249.8,15l0.5,7.2c1.9-4.7,6.5-7.7,11.5-7.7c0.9,0,1.7,0.1,2.6,0.2v5.6c-1-0.2-2-0.3-3-0.3
			c-5.7,0-10.7,3.9-10.7,8.2v12.9h-6.2V15H249.8z"/>
		<path id="Path_134" class="st0" d="M283.9,41.9c-10.4,0-15.9-5.9-15.9-13.6c0-8,6.2-14.2,15.1-14.2c9.6,0,14.5,6,14.5,13.8v1.6
			h-23.9c0.7,4.6,4,7.8,10.7,7.8c3.9-0.1,7.7-1.1,11.1-2.9l1.8,4.1C293.2,40.8,288.6,41.9,283.9,41.9z M273.8,26h17.9
			c-0.5-4.5-3.4-7.6-8.6-7.6C278.6,18.2,274.6,21.5,273.8,26L273.8,26z"/>
		<path id="Path_135" class="st0" d="M328.1,19.7V3.5h6.2v37.6H329l-0.5-5.5c-2.4,3.3-5.9,6.2-12,6.2c-7.8,0-13.5-5.6-13.5-13.8
			c0-8.2,5.9-13.8,13.6-13.8C321.1,14.2,325.4,16.2,328.1,19.7z M309.2,28.1c-0.2,4.9,3.6,9,8.5,9.2c0.3,0,0.5,0,0.8,0
			c5.3,0,9.7-3.9,9.7-9.2s-4.4-9.2-9.7-9.2C312.6,18.9,309.2,23,309.2,28.1L309.2,28.1z"/>
		<path id="Path_136" class="st0" d="M351.6,4.6v5.1h-7V4.6H351.6z M351.2,15v26.1h-6.3V15H351.2z"/>
		<path id="Path_137" class="st0" d="M364.6,15V9.2l6.2-1.4V15h10.7v4.5h-10.7V31c0,4.2,1.5,5.7,6.1,5.7h2.7v4.5h-4.3
			c-7.4,0-10.7-3.2-10.7-9.1V19.5h-5.9V15L364.6,15z"/>
	</g>
</g>
<linearGradient id="Path_125_00000070101196337690465290000006648787358242667178_" gradientUnits="userSpaceOnUse" x1="-723.4865" y1="578.8958" x2="-717.3535" y2="584.9548" gradientTransform="matrix(85.99 0 0 -82.8649 61771.8125 48481.4805)">
	<stop  offset="0" style="stop-color:#74479C"/>
	<stop  offset="0.386" style="stop-color:#73479C"/>
	<stop  offset="1" style="stop-color:#6B9FD5"/>
</linearGradient>
<path id="Path_125" style="fill:url(#Path_125_00000070101196337690465290000006648787358242667178_);" d="M91.4,21.5
	c-1.8-7.1-6.9-13-13.7-15.8C66.3,1,53.2,4.3,45.4,13.8c-3.4,4.1-5.2,9.3-5.3,14.6h0l-0.4,10.3v22.9h0c-0.2,2.8-2.8,5.6-6.5,6.5
	c-4.3,1.1-8.5-0.7-9.3-4c-0.8-3.3,2-6.9,6.3-7.9c2.3-0.6,4.8-0.3,6.9,0.8V38.1c-3.6-0.6-7.3-0.4-10.9,0.5c-5.8,1.4-11,4.7-14.8,9.4
	c-8.2,9.9-6.8,24.5,3.1,32.6c1.8,1.5,3.9,2.7,6,3.6c3.3,1.4,6.9,2.1,10.6,2.1c2.3,0,4.6-0.3,6.9-0.9c5.8-1.4,11-4.7,14.8-9.4
	c3.5-4.3,5.4-9.6,5.3-15.1l0,0l0.4-9.7v-23h0c0.2-2.8,2.8-5.6,6.5-6.5c4.3-1.1,8.5,0.7,9.3,4s-2,6.9-6.3,7.9
	c-2.3,0.6-4.8,0.3-6.9-0.8v18.9c1.3,0.2,2.6,0.3,4,0.3c2.3,0,4.6-0.3,6.9-0.9c5.8-1.4,11-4.7,14.8-9.4
	C91.4,36.2,93.2,28.6,91.4,21.5z"/>
</svg>
