<svg width="80" height="66" viewBox="0 0 80 66" xmlns="http://www.w3.org/2000/svg">
    <path d="M72.727 0H7.273C3.273 0 0 3.273 0 7.273v50.909c0 4 3.273 7.273 7.273 7.273h65.454c4 0 7.273-3.273 7.273-7.273V7.272C80 3.273 76.727 0 72.727 0zm0 58.182H7.273V7.272h65.454v50.91zM25.455 43.636c0-6.036 4.872-10.909 10.909-10.909 1.272 0 2.509.255 3.636.655V10.909h18.182v7.273h-10.91v25.563c-.072 5.964-4.908 10.8-10.908 10.8a10.894 10.894 0 0 1-10.91-10.909z" fill="#8500D1" fill-rule="nonzero"/>
</svg>
