<svg xmlns="http://www.w3.org/2000/svg" width="166.426" height="160.317" viewBox="0 0 166.426 160.317">
  <defs>
    <style><![CDATA[
       #Path_125 {
         stroke: #6d91cc;
         fill: #6d91cc;
       }
    ]]></style>
  </defs>
  <path id="Path_125" d="M243.442,118.106a45.4,45.4,0,0,0-26.57-30.621,54.1,54.1,0,0,0-62.462,15.681,45.989,45.989,0,0,0-10.28,28.225h-.022l-.7,19.993v44.342h-.044c-.327,5.466-5.358,10.737-12.523,12.545-8.385,2.113-16.465-1.372-18.076-7.753s3.9-13.263,12.261-15.376a17.59,17.59,0,0,1,13.263,1.568V150.339a51.444,51.444,0,0,0-21.017.958,53.355,53.355,0,0,0-28.639,18.142,44.855,44.855,0,0,0,17.6,70.15,51.985,51.985,0,0,0,20.45,4.116,55.386,55.386,0,0,0,13.372-1.655A53.355,53.355,0,0,0,168.7,223.908,46.017,46.017,0,0,0,179,194.594h0l.7-18.73V131.391h.044c.327-5.466,5.358-10.737,12.523-12.545,8.385-2.113,16.465,1.372,18.076,7.753s-3.9,13.263-12.261,15.376a17.6,17.6,0,0,1-13.263-1.568v36.545a52.817,52.817,0,0,0,7.644.5A55.386,55.386,0,0,0,205.83,175.8a53.355,53.355,0,0,0,28.639-18.142A45.393,45.393,0,0,0,243.442,118.106Z" transform="translate(-78.319 -83.388)" fill="#fff"/>
</svg>
